<?xml version="1.0" encoding="utf-8"?>
<!-- Generator: Adobe Illustrator 26.0.1, SVG Export Plug-In . SVG Version: 6.00 Build 0)  -->
<svg version="1.1" xmlns="http://www.w3.org/2000/svg" xmlns:xlink="http://www.w3.org/1999/xlink" x="0px" y="0px"
	 viewBox="0 0 144 144" style="enable-background:new 0 0 144 144;" xml:space="preserve">
<style type="text/css">
	.st0{opacity:0.6;}
	.st1{clip-path:url(#SVGID_00000021088886100178814450000011927754773835077532_);fill:#FFFFFF;}
</style>
<g id="Layer_1">
	<g class="st0">
		<defs>
			<rect id="SVGID_1_" class="st0" width="144" height="144"/>
		</defs>
		<clipPath id="SVGID_00000011746850129531247150000000951004060444262303_">
			<use xlink:href="#SVGID_1_"  style="overflow:visible;"/>
		</clipPath>
		<path style="clip-path:url(#SVGID_00000011746850129531247150000000951004060444262303_);fill:#FFFFFF;" d="M130.13,135.94
			c0-3.12-1.64-5.86-4.09-7.4l0,14.8C128.5,141.79,130.13,139.05,130.13,135.94z M113.96,143.34v-14.8
			c-2.46,1.55-4.09,4.28-4.09,7.4C109.87,139.05,111.5,141.79,113.96,143.34z M120.65,151.92c0,3.12,1.64,5.86,4.09,7.4l0-14.8
			C122.29,146.06,120.65,148.8,120.65,151.92z M115.25,144.52l0,14.8c2.46-1.54,4.09-4.28,4.09-7.4
			C119.35,148.8,117.71,146.06,115.25,144.52z M130.13,103.97c0-3.12-1.64-5.86-4.09-7.4v14.8
			C128.5,109.82,130.13,107.09,130.13,103.97z M113.96,111.37l0-14.8c-2.46,1.55-4.09,4.28-4.09,7.4
			C109.87,107.09,111.5,109.82,113.96,111.37z M120.65,119.95c0,3.12,1.64,5.86,4.09,7.4l0-14.8
			C122.29,114.1,120.65,116.83,120.65,119.95z M115.25,112.55v14.8c2.46-1.54,4.09-4.28,4.09-7.4
			C119.35,116.83,117.71,114.1,115.25,112.55z M130.13,72c0-3.12-1.64-5.86-4.09-7.4l0,14.8C128.5,77.86,130.13,75.12,130.13,72z
			 M113.96,79.4l0-14.8c-2.46,1.55-4.09,4.28-4.09,7.4C109.87,75.12,111.5,77.86,113.96,79.4z M120.65,87.99
			c0,3.12,1.64,5.86,4.09,7.4v-14.8C122.29,82.13,120.65,84.87,120.65,87.99z M115.25,80.58l0,14.8c2.46-1.54,4.09-4.28,4.09-7.4
			C119.35,84.87,117.71,82.13,115.25,80.58z M130.13,40.03c0-3.12-1.64-5.86-4.09-7.4l0,14.8C128.5,45.89,130.13,43.15,130.13,40.03
			z M113.96,47.43v-14.8c-2.46,1.55-4.09,4.28-4.09,7.4C109.87,43.15,111.5,45.89,113.96,47.43z M120.65,56.02
			c0,3.12,1.64,5.86,4.09,7.4l0-14.8C122.29,50.16,120.65,52.9,120.65,56.02z M115.25,48.61v14.8c2.46-1.54,4.09-4.28,4.09-7.4
			C119.35,52.9,117.71,50.16,115.25,48.61z M130.13,8.07c0-3.12-1.64-5.86-4.09-7.4v14.8C128.5,13.92,130.13,11.18,130.13,8.07z
			 M113.96,15.46l0-14.8c-2.46,1.55-4.09,4.28-4.09,7.4C109.87,11.18,111.5,13.92,113.96,15.46z M120.65,24.05
			c0,3.12,1.64,5.86,4.09,7.4v-14.8C122.29,18.19,120.65,20.93,120.65,24.05z M115.25,16.65l0,14.8c2.46-1.54,4.09-4.28,4.09-7.4
			C119.35,20.93,117.71,18.19,115.25,16.65z M120.65-7.92c0,3.12,1.64,5.86,4.09,7.4l0-14.8C122.29-13.78,120.65-11.04,120.65-7.92z
			 M115.25-15.32l0,14.8c2.46-1.54,4.09-4.28,4.09-7.4C119.35-11.04,117.71-13.78,115.25-15.32z M154.13,135.94
			c0-3.12-1.64-5.86-4.09-7.4v14.8C152.5,141.79,154.13,139.05,154.13,135.94z M137.96,143.34v-14.8c-2.46,1.55-4.09,4.28-4.09,7.4
			C133.87,139.05,135.5,141.79,137.96,143.34z M144.65,151.92c0,3.12,1.64,5.86,4.09,7.4v-14.8
			C146.29,146.06,144.65,148.8,144.65,151.92z M139.25,144.52l0,14.8c2.46-1.54,4.09-4.28,4.09-7.4
			C143.35,148.8,141.71,146.06,139.25,144.52z M154.13,103.97c0-3.12-1.64-5.86-4.09-7.4v14.8
			C152.5,109.82,154.13,107.09,154.13,103.97z M137.96,111.37l0-14.8c-2.46,1.55-4.09,4.28-4.09,7.4
			C133.87,107.09,135.5,109.82,137.96,111.37z M144.65,119.95c0,3.12,1.64,5.86,4.09,7.4v-14.8
			C146.29,114.1,144.65,116.83,144.65,119.95z M139.25,112.55v14.8c2.46-1.54,4.09-4.28,4.09-7.4
			C143.35,116.83,141.71,114.1,139.25,112.55z M154.13,72c0-3.12-1.64-5.86-4.09-7.4v14.8C152.5,77.86,154.13,75.12,154.13,72z
			 M137.96,79.4V64.6c-2.46,1.55-4.09,4.28-4.09,7.4C133.87,75.12,135.5,77.86,137.96,79.4z M144.65,87.99
			c0,3.12,1.64,5.86,4.09,7.4l0-14.8C146.29,82.13,144.65,84.87,144.65,87.99z M139.25,80.58v14.8c2.46-1.54,4.09-4.28,4.09-7.4
			C143.35,84.87,141.71,82.13,139.25,80.58z M154.13,40.03c0-3.12-1.64-5.86-4.09-7.4l0,14.8C152.5,45.89,154.13,43.15,154.13,40.03
			z M137.96,47.43v-14.8c-2.46,1.55-4.09,4.28-4.09,7.4C133.87,43.15,135.5,45.89,137.96,47.43z M144.65,56.02
			c0,3.12,1.64,5.86,4.09,7.4v-14.8C146.29,50.16,144.65,52.9,144.65,56.02z M139.25,48.61l0,14.8c2.46-1.54,4.09-4.28,4.09-7.4
			C143.35,52.9,141.71,50.16,139.25,48.61z M154.13,8.07c0-3.12-1.64-5.86-4.09-7.4v14.8C152.5,13.92,154.13,11.18,154.13,8.07z
			 M137.96,15.46V0.66c-2.46,1.55-4.09,4.28-4.09,7.4C133.87,11.18,135.5,13.92,137.96,15.46z M144.65,24.05
			c0,3.12,1.64,5.86,4.09,7.4v-14.8C146.29,18.19,144.65,20.93,144.65,24.05z M139.25,16.65v14.8c2.46-1.54,4.09-4.28,4.09-7.4
			C143.35,20.93,141.71,18.19,139.25,16.65z M144.65-7.92c0,3.12,1.64,5.86,4.09,7.4l0-14.8C146.29-13.78,144.65-11.04,144.65-7.92z
			 M139.25-15.32v14.8c2.46-1.54,4.09-4.28,4.09-7.4C143.35-11.04,141.71-13.78,139.25-15.32z M106.13,135.94
			c0-3.12-1.64-5.86-4.09-7.4l0,14.8C104.5,141.79,106.13,139.05,106.13,135.94z M89.96,143.34v-14.8c-2.46,1.55-4.09,4.28-4.09,7.4
			C85.87,139.05,87.5,141.79,89.96,143.34z M96.65,151.92c0,3.12,1.64,5.86,4.09,7.4l0-14.8C98.29,146.06,96.65,148.8,96.65,151.92z
			 M91.25,144.52l0,14.8c2.46-1.54,4.09-4.28,4.09-7.4C95.35,148.8,93.71,146.06,91.25,144.52z M106.13,103.97
			c0-3.12-1.64-5.86-4.09-7.4v14.8C104.5,109.82,106.13,107.09,106.13,103.97z M89.96,111.37l0-14.8c-2.46,1.55-4.09,4.28-4.09,7.4
			C85.87,107.09,87.5,109.82,89.96,111.37z M96.65,119.95c0,3.12,1.64,5.86,4.09,7.4l0-14.8C98.29,114.1,96.65,116.83,96.65,119.95z
			 M91.25,112.55v14.8c2.46-1.54,4.09-4.28,4.09-7.4C95.35,116.83,93.71,114.1,91.25,112.55z M106.13,72c0-3.12-1.64-5.86-4.09-7.4
			l0,14.8C104.5,77.86,106.13,75.12,106.13,72z M89.96,79.4l0-14.8c-2.46,1.55-4.09,4.28-4.09,7.4
			C85.87,75.12,87.5,77.86,89.96,79.4z M96.65,87.99c0,3.12,1.64,5.86,4.09,7.4v-14.8C98.29,82.13,96.65,84.87,96.65,87.99z
			 M91.25,80.58l0,14.8c2.46-1.54,4.09-4.28,4.09-7.4C95.35,84.87,93.71,82.13,91.25,80.58z M106.13,40.03
			c0-3.12-1.64-5.86-4.09-7.4l0,14.8C104.5,45.89,106.13,43.15,106.13,40.03z M89.96,47.43v-14.8c-2.46,1.55-4.09,4.28-4.09,7.4
			C85.87,43.15,87.5,45.89,89.96,47.43z M96.65,56.02c0,3.12,1.64,5.86,4.09,7.4l0-14.8C98.29,50.16,96.65,52.9,96.65,56.02z
			 M91.25,48.61v14.8c2.46-1.54,4.09-4.28,4.09-7.4C95.35,52.9,93.71,50.16,91.25,48.61z M106.13,8.07c0-3.12-1.64-5.86-4.09-7.4
			v14.8C104.5,13.92,106.13,11.18,106.13,8.07z M89.96,15.46l0-14.8c-2.46,1.55-4.09,4.28-4.09,7.4
			C85.87,11.18,87.5,13.92,89.96,15.46z M96.65,24.05c0,3.12,1.64,5.86,4.09,7.4v-14.8C98.29,18.19,96.65,20.93,96.65,24.05z
			 M91.25,16.65l0,14.8c2.46-1.54,4.09-4.28,4.09-7.4C95.35,20.93,93.71,18.19,91.25,16.65z M96.65-7.92c0,3.12,1.64,5.86,4.09,7.4
			l0-14.8C98.29-13.78,96.65-11.04,96.65-7.92z M91.25-15.32l0,14.8c2.46-1.54,4.09-4.28,4.09-7.4
			C95.35-11.04,93.71-13.78,91.25-15.32z M82.13,135.94c0-3.12-1.64-5.86-4.09-7.4l0,14.8C80.5,141.79,82.13,139.05,82.13,135.94z
			 M65.96,143.34v-14.8c-2.46,1.55-4.09,4.28-4.09,7.4C61.87,139.05,63.5,141.79,65.96,143.34z M72.65,151.92
			c0,3.12,1.64,5.86,4.09,7.4l0-14.8C74.29,146.06,72.65,148.8,72.65,151.92z M67.25,144.52l0,14.8c2.46-1.54,4.09-4.28,4.09-7.4
			C71.35,148.8,69.71,146.06,67.25,144.52z M82.13,103.97c0-3.12-1.64-5.86-4.09-7.4v14.8C80.5,109.82,82.13,107.09,82.13,103.97z
			 M65.96,111.37l0-14.8c-2.46,1.55-4.09,4.28-4.09,7.4C61.87,107.09,63.5,109.82,65.96,111.37z M72.65,119.95
			c0,3.12,1.64,5.86,4.09,7.4l0-14.8C74.29,114.1,72.65,116.83,72.65,119.95z M67.25,112.55v14.8c2.46-1.54,4.09-4.28,4.09-7.4
			C71.35,116.83,69.71,114.1,67.25,112.55z M82.13,72c0-3.12-1.64-5.86-4.09-7.4l0,14.8C80.5,77.86,82.13,75.12,82.13,72z
			 M65.96,79.4l0-14.8c-2.46,1.55-4.09,4.28-4.09,7.4C61.87,75.12,63.5,77.86,65.96,79.4z M72.65,87.99c0,3.12,1.64,5.86,4.09,7.4
			v-14.8C74.29,82.13,72.65,84.87,72.65,87.99z M67.25,80.58l0,14.8c2.46-1.54,4.09-4.28,4.09-7.4
			C71.35,84.87,69.71,82.13,67.25,80.58z M82.13,40.03c0-3.12-1.64-5.86-4.09-7.4l0,14.8C80.5,45.89,82.13,43.15,82.13,40.03z
			 M65.96,47.43v-14.8c-2.46,1.55-4.09,4.28-4.09,7.4C61.87,43.15,63.5,45.89,65.96,47.43z M72.65,56.02c0,3.12,1.64,5.86,4.09,7.4
			l0-14.8C74.29,50.16,72.65,52.9,72.65,56.02z M67.25,48.61v14.8c2.46-1.54,4.09-4.28,4.09-7.4C71.35,52.9,69.71,50.16,67.25,48.61
			z M82.13,8.07c0-3.12-1.64-5.86-4.09-7.4v14.8C80.5,13.92,82.13,11.18,82.13,8.07z M65.96,15.46l0-14.8
			c-2.46,1.55-4.09,4.28-4.09,7.4C61.87,11.18,63.5,13.92,65.96,15.46z M72.65,24.05c0,3.12,1.64,5.86,4.09,7.4v-14.8
			C74.29,18.19,72.65,20.93,72.65,24.05z M67.25,16.65l0,14.8c2.46-1.54,4.09-4.28,4.09-7.4C71.35,20.93,69.71,18.19,67.25,16.65z
			 M72.65-7.92c0,3.12,1.64,5.86,4.09,7.4l0-14.8C74.29-13.78,72.65-11.04,72.65-7.92z M67.25-15.32l0,14.8
			c2.46-1.54,4.09-4.28,4.09-7.4C71.35-11.04,69.71-13.78,67.25-15.32z M58.13,135.94c0-3.12-1.64-5.86-4.09-7.4l0,14.8
			C56.5,141.79,58.13,139.05,58.13,135.94z M41.96,143.34l0-14.8c-2.46,1.55-4.09,4.28-4.09,7.4
			C37.87,139.05,39.5,141.79,41.96,143.34z M48.65,151.92c0,3.12,1.64,5.86,4.09,7.4l0-14.8C50.29,146.06,48.65,148.8,48.65,151.92z
			 M43.25,144.52l0,14.8c2.46-1.54,4.09-4.28,4.09-7.4C47.35,148.8,45.71,146.06,43.25,144.52z M58.13,103.97
			c0-3.12-1.64-5.86-4.09-7.4l0,14.8C56.5,109.82,58.13,107.09,58.13,103.97z M41.96,111.37l0-14.8c-2.46,1.55-4.09,4.28-4.09,7.4
			C37.87,107.09,39.5,109.82,41.96,111.37z M48.65,119.95c0,3.12,1.64,5.86,4.09,7.4l0-14.8C50.29,114.1,48.65,116.83,48.65,119.95z
			 M43.25,112.55l0,14.8c2.46-1.54,4.09-4.28,4.09-7.4C47.35,116.83,45.71,114.1,43.25,112.55z M58.13,72c0-3.12-1.64-5.86-4.09-7.4
			l0,14.8C56.5,77.86,58.13,75.12,58.13,72z M41.96,79.4l0-14.8c-2.46,1.55-4.09,4.28-4.09,7.4C37.87,75.12,39.5,77.86,41.96,79.4z
			 M48.65,87.99c0,3.12,1.64,5.86,4.09,7.4l0-14.8C50.29,82.13,48.65,84.87,48.65,87.99z M43.25,80.58l0,14.8
			c2.46-1.54,4.09-4.28,4.09-7.4C47.35,84.87,45.71,82.13,43.25,80.58z M58.13,40.03c0-3.12-1.64-5.86-4.09-7.4l0,14.8
			C56.5,45.89,58.13,43.15,58.13,40.03z M41.96,47.43l0-14.8c-2.46,1.55-4.09,4.28-4.09,7.4C37.87,43.15,39.5,45.89,41.96,47.43z
			 M48.65,56.02c0,3.12,1.64,5.86,4.09,7.4l0-14.8C50.29,50.16,48.65,52.9,48.65,56.02z M43.25,48.61l0,14.8
			c2.46-1.54,4.09-4.28,4.09-7.4C47.35,52.9,45.71,50.16,43.25,48.61z M58.13,8.07c0-3.12-1.64-5.86-4.09-7.4l0,14.8
			C56.5,13.92,58.13,11.18,58.13,8.07z M41.96,15.46l0-14.8c-2.46,1.55-4.09,4.28-4.09,7.4C37.87,11.18,39.5,13.92,41.96,15.46z
			 M48.65,24.05c0,3.12,1.64,5.86,4.09,7.4l0-14.8C50.29,18.19,48.65,20.93,48.65,24.05z M43.25,16.65l0,14.8
			c2.46-1.54,4.09-4.28,4.09-7.4C47.35,20.93,45.71,18.19,43.25,16.65z M48.65-7.92c0,3.12,1.64,5.86,4.09,7.4l0-14.8
			C50.29-13.78,48.65-11.04,48.65-7.92z M43.25-15.32l0,14.8c2.46-1.54,4.09-4.28,4.09-7.4C47.35-11.04,45.71-13.78,43.25-15.32z
			 M34.13,135.94c0-3.12-1.64-5.86-4.09-7.4l0,14.8C32.5,141.79,34.13,139.05,34.13,135.94z M17.96,143.34l0-14.8
			c-2.46,1.55-4.09,4.28-4.09,7.4C13.87,139.05,15.5,141.79,17.96,143.34z M24.65,151.92c0,3.12,1.64,5.86,4.09,7.4l0-14.8
			C26.29,146.06,24.65,148.8,24.65,151.92z M19.25,144.52l0,14.8c2.46-1.54,4.09-4.28,4.09-7.4
			C23.35,148.8,21.71,146.06,19.25,144.52z M34.13,103.97c0-3.12-1.64-5.86-4.09-7.4l0,14.8C32.5,109.82,34.13,107.09,34.13,103.97z
			 M17.96,111.37l0-14.8c-2.46,1.55-4.09,4.28-4.09,7.4C13.87,107.09,15.5,109.82,17.96,111.37z M24.65,119.95
			c0,3.12,1.64,5.86,4.09,7.4l0-14.8C26.29,114.1,24.65,116.83,24.65,119.95z M19.25,112.55l0,14.8c2.46-1.54,4.09-4.28,4.09-7.4
			C23.35,116.83,21.71,114.1,19.25,112.55z M34.13,72c0-3.12-1.64-5.86-4.09-7.4l0,14.8C32.5,77.86,34.13,75.12,34.13,72z
			 M17.96,79.4l0-14.8c-2.46,1.55-4.09,4.28-4.09,7.4C13.87,75.12,15.5,77.86,17.96,79.4z M24.65,87.99c0,3.12,1.64,5.86,4.09,7.4
			l0-14.8C26.29,82.13,24.65,84.87,24.65,87.99z M19.25,80.58l0,14.8c2.46-1.54,4.09-4.28,4.09-7.4
			C23.35,84.87,21.71,82.13,19.25,80.58z M34.13,40.03c0-3.12-1.64-5.86-4.09-7.4l0,14.8C32.5,45.89,34.13,43.15,34.13,40.03z
			 M17.96,47.43l0-14.8c-2.46,1.55-4.09,4.28-4.09,7.4C13.87,43.15,15.5,45.89,17.96,47.43z M24.65,56.02c0,3.12,1.64,5.86,4.09,7.4
			l0-14.8C26.29,50.16,24.65,52.9,24.65,56.02z M19.25,48.61l0,14.8c2.46-1.54,4.09-4.28,4.09-7.4
			C23.35,52.9,21.71,50.16,19.25,48.61z M34.13,8.07c0-3.12-1.64-5.86-4.09-7.4l0,14.8C32.5,13.92,34.13,11.18,34.13,8.07z
			 M17.96,15.46l0-14.8c-2.46,1.55-4.09,4.28-4.09,7.4C13.87,11.18,15.5,13.92,17.96,15.46z M24.65,24.05c0,3.12,1.64,5.86,4.09,7.4
			l0-14.8C26.29,18.19,24.65,20.93,24.65,24.05z M19.25,16.65l0,14.8c2.46-1.54,4.09-4.28,4.09-7.4
			C23.35,20.93,21.71,18.19,19.25,16.65z M24.65-7.92c0,3.12,1.64,5.86,4.09,7.4l0-14.8C26.29-13.78,24.65-11.04,24.65-7.92z
			 M19.25-15.32l0,14.8c2.46-1.54,4.09-4.28,4.09-7.4C23.35-11.04,21.71-13.78,19.25-15.32z M10.13,135.94
			c0-3.12-1.64-5.86-4.09-7.4l0,14.8C8.5,141.79,10.13,139.05,10.13,135.94z M-6.04,143.34l0-14.8c-2.46,1.55-4.09,4.28-4.09,7.4
			C-10.13,139.05-8.5,141.79-6.04,143.34z M0.65,151.92c0,3.12,1.64,5.86,4.09,7.4l0-14.8C2.29,146.06,0.65,148.8,0.65,151.92z
			 M-4.75,144.52l0,14.8c2.46-1.54,4.09-4.28,4.09-7.4C-0.65,148.8-2.29,146.06-4.75,144.52z M10.13,103.97
			c0-3.12-1.64-5.86-4.09-7.4l0,14.8C8.5,109.82,10.13,107.09,10.13,103.97z M-6.04,111.37l0-14.8c-2.46,1.55-4.09,4.28-4.09,7.4
			C-10.13,107.09-8.5,109.82-6.04,111.37z M0.65,119.95c0,3.12,1.64,5.86,4.09,7.4l0-14.8C2.29,114.1,0.65,116.83,0.65,119.95z
			 M-4.75,112.55l0,14.8c2.46-1.54,4.09-4.28,4.09-7.4C-0.65,116.83-2.29,114.1-4.75,112.55z M10.13,72c0-3.12-1.64-5.86-4.09-7.4
			l0,14.8C8.5,77.86,10.13,75.12,10.13,72z M-6.04,79.4l0-14.8c-2.46,1.55-4.09,4.28-4.09,7.4C-10.13,75.12-8.5,77.86-6.04,79.4z
			 M0.65,87.99c0,3.12,1.64,5.86,4.09,7.4l0-14.8C2.29,82.13,0.65,84.87,0.65,87.99z M-4.75,80.58l0,14.8
			c2.46-1.54,4.09-4.28,4.09-7.4C-0.65,84.87-2.29,82.13-4.75,80.58z M10.13,40.03c0-3.12-1.64-5.86-4.09-7.4l0,14.8
			C8.5,45.89,10.13,43.15,10.13,40.03z M-6.04,47.43l0-14.8c-2.46,1.55-4.09,4.28-4.09,7.4C-10.13,43.15-8.5,45.89-6.04,47.43z
			 M0.65,56.02c0,3.12,1.64,5.86,4.09,7.4l0-14.8C2.29,50.16,0.65,52.9,0.65,56.02z M-4.75,48.61l0,14.8
			c2.46-1.54,4.09-4.28,4.09-7.4C-0.65,52.9-2.29,50.16-4.75,48.61z M10.13,8.07c0-3.12-1.64-5.86-4.09-7.4l0,14.8
			C8.5,13.92,10.13,11.18,10.13,8.07z M-6.04,15.46l0-14.8c-2.46,1.55-4.09,4.28-4.09,7.4C-10.13,11.18-8.5,13.92-6.04,15.46z
			 M0.65,24.05c0,3.12,1.64,5.86,4.09,7.4l0-14.8C2.29,18.19,0.65,20.93,0.65,24.05z M-4.75,16.65l0,14.8
			c2.46-1.54,4.09-4.28,4.09-7.4C-0.65,20.93-2.29,18.19-4.75,16.65z M0.65-7.92c0,3.12,1.64,5.86,4.09,7.4l0-14.8
			C2.29-13.78,0.65-11.04,0.65-7.92z M-4.75-15.32l0,14.8c2.46-1.54,4.09-4.28,4.09-7.4C-0.65-11.04-2.29-13.78-4.75-15.32z"/>
	</g>
</g>
<g id="Layer_2">
</g>
</svg>
